<?xml version="1.0" encoding="UTF-8" standalone="no"?>
<!-- Generator: Adobe Illustrator 21.0.0, SVG Export Plug-In . SVG Version: 6.00 Build 0)  -->

<svg
   xmlns:dc="http://purl.org/dc/elements/1.1/"
   xmlns:cc="http://creativecommons.org/ns#"
   xmlns:rdf="http://www.w3.org/1999/02/22-rdf-syntax-ns#"
   xmlns:svg="http://www.w3.org/2000/svg"
   xmlns="http://www.w3.org/2000/svg"
   xmlns:sodipodi="http://sodipodi.sourceforge.net/DTD/sodipodi-0.dtd"
   xmlns:inkscape="http://www.inkscape.org/namespaces/inkscape"
   version="1.1"
   id="Layer_1"
   x="0px"
   y="0px"
   viewBox="0 0 100.353 100.353"
   style="enable-background:new 0 0 100.353 100.353;"
   xml:space="preserve"
   sodipodi:docname="Tilda_Icons_16cf_rocket.svg"
   inkscape:version="0.92.3 (2405546, 2018-03-11)"><metadata
   id="metadata13"><rdf:RDF><cc:Work
       rdf:about=""><dc:format>image/svg+xml</dc:format><dc:type
         rdf:resource="http://purl.org/dc/dcmitype/StillImage" /><dc:title></dc:title></cc:Work></rdf:RDF></metadata><defs
   id="defs11" /><sodipodi:namedview
   pagecolor="#ffffff"
   bordercolor="#666666"
   borderopacity="1"
   objecttolerance="10"
   gridtolerance="10"
   guidetolerance="10"
   inkscape:pageopacity="0"
   inkscape:pageshadow="2"
   inkscape:window-width="1920"
   inkscape:window-height="1016"
   id="namedview9"
   showgrid="false"
   inkscape:zoom="4.7033972"
   inkscape:cx="50.176498"
   inkscape:cy="50.176498"
   inkscape:window-x="0"
   inkscape:window-y="27"
   inkscape:window-maximized="1"
   inkscape:current-layer="Layer_1" />
<g
   id="g6">
	<path
   style="fill:#231F20;"
   d="M82.245,28.332c1.299-6.524,1.865-14.955-2.815-18.071c-4.679-3.119-12.24,0.647-17.762,4.357   c-5.877,3.95-12.068,9.706-14.722,13.686l-1.963,2.946c-3.139-0.085-13.09-0.227-16.747,1.266   c-4.037,1.651-11.394,10.368-11.749,13.92c-0.136,1.365,0.554,2.042,0.979,2.325c0.781,0.519,2.895,0.715,5.645,0.715   c2.918,0,6.551-0.222,10.07-0.513l-0.663,0.996c-0.001,0.001-0.002,0.002-0.003,0.003s-0.001,0.003-0.002,0.004l-5.587,8.384   c-3.761,5.653-3.775,13.017-0.138,18.658L24.461,80.5c-0.978,1.466-1.301,3.239-0.908,4.992c0.386,1.728,1.425,3.23,2.926,4.229   c1.188,0.79,2.527,1.168,3.842,1.168c2.137,0,4.207-1,5.448-2.859l2.319-3.48c0.994,0.178,1.991,0.267,2.983,0.266   c5.605,0,10.994-2.785,14.195-7.585l6.697-10.053c2.109,6.527,4.629,13.356,6.24,14.43c0.251,0.167,0.665,0.367,1.213,0.367   c0.377,0,0.817-0.095,1.311-0.362c3.143-1.698,8.35-11.847,8.315-16.205c-0.025-3.947-3.993-13.079-5.281-15.941l1.518-2.279   C77.932,43.21,80.862,35.28,82.245,28.332z M63.342,17.108c6.533-4.391,11.928-6.017,14.425-4.351   c2.5,1.665,3.074,7.268,1.536,14.988c-1.491,7.489-4.409,14.611-6.521,17.777L59.189,65.927l-16.05-10.692   c-0.01-0.007-0.017-0.016-0.027-0.022c-0.01-0.007-0.021-0.01-0.031-0.017l-7.238-4.821l11.139-16.718l0,0l2.459-3.691   C51.555,26.8,57.007,21.365,63.342,17.108z M19.534,46.363c0.676-2.386,6.502-9.705,9.837-11.07   c2.399-0.979,9.218-1.125,13.637-1.078l-7.696,11.55C28.879,46.349,21.582,46.691,19.534,46.363z M29.423,60.013l4.757-7.139   l6.018,4.009L28.636,74.233C26.33,69.769,26.575,64.294,29.423,60.013z M33.273,86.364c-1.089,1.631-3.393,2.016-5.133,0.858   c-0.854-0.568-1.442-1.416-1.66-2.386c-0.211-0.945-0.042-1.895,0.478-2.673l2.91-4.367c0.008-0.013,0.018-0.025,0.026-0.038   l12.802-19.213l6.312,4.205L33.273,86.364z M52.77,75.566c-2.852,4.279-7.815,6.613-12.83,6.203l11.564-17.355l6.022,4.012   L52.77,75.566z M76.041,65.429c0.028,3.594-4.451,11.75-6.404,13.33c-1.164-1.892-3.627-8.684-5.543-14.781l7.691-11.546   C73.532,56.491,76.025,62.841,76.041,65.429z"
   id="path2" />
	<path
   style="fill:#231F20;"
   d="M56.201,44.239c1.767,1.177,3.766,1.741,5.744,1.741c3.36,0,6.662-1.625,8.662-4.625l0.001-0.001   c3.174-4.77,1.878-11.231-2.89-14.404c-2.309-1.538-5.079-2.086-7.8-1.542s-5.066,2.115-6.603,4.423   c-1.541,2.311-2.089,5.083-1.543,7.806C52.32,40.358,53.893,42.703,56.201,44.239z M55.814,31.494   c1.092-1.641,2.76-2.758,4.694-3.145c0.487-0.098,0.978-0.146,1.464-0.146c1.443,0,2.855,0.424,4.085,1.243   c3.39,2.256,4.312,6.852,2.054,10.244c-2.259,3.39-6.857,4.311-10.246,2.051c-1.643-1.092-2.762-2.76-3.149-4.695   C54.327,35.111,54.717,33.139,55.814,31.494z"
   id="path4" />
</g>
<path
   style="opacity:1;fill:#e44a66;fill-opacity:1;stroke:none;stroke-width:0.07516979;stroke-miterlimit:4;stroke-dasharray:none;stroke-opacity:1"
   d="M 60.840055,42.856486 C 59.22377,42.591595 57.818797,41.855671 56.702797,40.689392 55.45454,39.3849 54.787033,37.945368 54.653098,36.269057 c -0.179081,-2.241355 0.504883,-4.168401 2.050231,-5.776456 0.893117,-0.929359 1.858885,-1.523926 3.12291,-1.922593 2.594184,-0.818192 5.537575,-0.04935 7.423219,1.939021 0.876558,0.92431 1.49895,2.03541 1.837574,3.280455 0.24426,0.898089 0.243577,2.744145 -0.0013,3.645734 -0.573678,2.111749 -2.090358,3.92044 -4.04465,4.823379 -1.227958,0.567351 -2.918896,0.808008 -4.200978,0.597889 z"
   id="path820"
   inkscape:connector-curvature="0" /><path
   style="opacity:1;fill:#d3e8e1;fill-opacity:1;stroke:none;stroke-width:0.07516979;stroke-miterlimit:4;stroke-dasharray:none;stroke-opacity:1"
   d="m 47.608824,58.17029 c -6.36447,-4.240995 -11.599755,-7.736582 -11.633967,-7.767969 -0.05807,-0.05328 13.395984,-20.32389 14.144552,-21.31095 0.846754,-1.116527 2.04584,-2.453425 3.541877,-3.948949 5.953009,-5.950969 13.470597,-11.016349 18.49486,-12.461908 1.366824,-0.393257 1.987972,-0.493373 3.081961,-0.496746 1.521564,-0.0047 2.27422,0.270431 3.071522,1.12275 1.287381,1.376214 1.909984,4.033891 1.787198,7.628931 -0.223855,6.554272 -2.705084,15.695744 -6.049488,22.287844 -0.68513,1.350447 -2.072826,3.477217 -11.070589,16.966683 l -3.796163,5.691215 z M 63.737129,45.846476 c 4.292037,-0.74639 7.60572,-4.012051 8.46828,-8.345559 0.182555,-0.917159 0.183317,-2.893909 0.0015,-3.806892 -0.412996,-2.073455 -1.37756,-3.926265 -2.789079,-5.357482 -0.85818,-0.870156 -1.682265,-1.477888 -2.723277,-2.008316 -2.284362,-1.163956 -4.688774,-1.445335 -7.217043,-0.844584 -3.839531,0.912325 -6.832756,3.999592 -7.732077,7.975004 -0.180848,0.799434 -0.226627,2.841823 -0.08325,3.714371 0.259234,1.577662 0.937935,3.254482 1.809947,4.471709 1.116465,1.558454 2.765626,2.85929 4.550859,3.589657 1.792686,0.733416 3.787664,0.947114 5.714177,0.612092 z"
   id="path822"
   inkscape:connector-curvature="0" /><path
   style="opacity:1;fill:#d3e8e1;fill-opacity:1;stroke:none;stroke-width:0.07516979;stroke-miterlimit:4;stroke-dasharray:none;stroke-opacity:1"
   d="m 69.309155,78.083284 c -0.700347,-1.39298 -1.930812,-4.51711 -3.13086,-7.949206 -0.641262,-1.833985 -1.971926,-5.848221 -2.005956,-6.051404 -0.02012,-0.120147 7.501898,-11.50081 7.601351,-11.500688 0.02431,2.9e-5 0.320657,0.668101 0.658559,1.484603 2.304353,5.568211 3.557556,9.589016 3.557556,11.414143 0,2.296853 -2.010593,7.146438 -4.54707,10.967609 -0.691364,1.041532 -1.629265,2.217509 -1.768575,2.217509 -0.03966,0 -0.203912,-0.262155 -0.365005,-0.582566 z"
   id="path824"
   inkscape:connector-curvature="0" /><path
   style="opacity:1;fill:#d3e8e1;fill-opacity:1;stroke:none;stroke-width:0.07516979;stroke-miterlimit:4;stroke-dasharray:none;stroke-opacity:1"
   d="m 40.058644,81.72341 c 0,-0.04206 11.318963,-17.10113 11.416932,-17.206717 0.05396,-0.05815 5.893064,3.800973 5.933171,3.921292 0.01295,0.03884 -1.15952,1.840152 -2.605485,4.002906 -2.772659,4.147115 -3.333343,4.877976 -4.515999,5.886695 -1.875768,1.599892 -4.170816,2.715087 -6.582884,3.198714 -0.605007,0.121305 -1.205038,0.175691 -2.236301,0.202695 -0.775189,0.0203 -1.409434,0.01779 -1.409434,-0.0056 z"
   id="path826"
   inkscape:connector-curvature="0" /><path
   style="opacity:1;fill:#e44a66;fill-opacity:1;stroke:none;stroke-width:0.07516979;stroke-miterlimit:4;stroke-dasharray:none;stroke-opacity:1"
   d="m 29.311906,87.716245 c -0.954305,-0.256467 -1.938423,-1.039673 -2.404026,-1.913234 -0.321384,-0.602978 -0.452972,-1.112313 -0.454076,-1.75759 -0.0019,-1.108551 -0.45934,-0.363275 8.215659,-13.385154 4.379242,-6.573598 7.983734,-11.974953 8.009984,-12.00301 0.04056,-0.04336 5.987236,3.855702 6.190395,4.058861 0.108334,0.108334 -15.759897,23.876905 -16.198025,24.262561 -0.390037,0.343324 -1.011387,0.667453 -1.491827,0.778214 -0.470322,0.108429 -1.387645,0.08847 -1.868084,-0.04065 z"
   id="path828"
   inkscape:connector-curvature="0" /><path
   style="opacity:1;fill:#d3e8e1;fill-opacity:1;stroke:none;stroke-width:0.07516979;stroke-miterlimit:4;stroke-dasharray:none;stroke-opacity:1"
   d="m 28.372125,73.610681 c -0.814419,-1.864707 -1.15462,-3.347982 -1.220891,-5.323091 -0.06136,-1.828766 0.144028,-3.291893 0.693794,-4.942372 0.52429,-1.574001 0.982808,-2.373255 3.716654,-6.478608 1.417872,-2.129184 2.590322,-3.885163 2.605443,-3.902175 0.01512,-0.01701 1.364084,0.859544 2.997693,1.9479 l 2.970197,1.978831 -0.126629,0.194439 c -1.347855,2.069646 -11.340373,16.994888 -11.378155,16.994888 -0.0291,0 -0.14525,-0.211415 -0.258106,-0.469812 z"
   id="path830"
   inkscape:connector-curvature="0" /><path
   style="opacity:1;fill:#d3e8e1;fill-opacity:1;stroke:none;stroke-width:0.07516979;stroke-miterlimit:4;stroke-dasharray:none;stroke-opacity:1"
   d="m 19.819177,46.364168 c -0.251187,-0.03805 -0.25255,-0.06374 -0.03007,-0.566811 0.831472,-1.880105 3.445693,-5.268693 5.959747,-7.725102 2.378326,-2.323794 3.546627,-2.953405 6.191453,-3.336644 2.027521,-0.293791 6.69003,-0.528122 9.56549,-0.480747 l 1.409568,0.02322 -3.806199,5.712904 c -2.093408,3.142098 -3.81016,5.718038 -3.815001,5.724312 -0.04886,0.06333 -5.375987,0.446824 -8.190536,0.589636 -1.967703,0.09984 -6.759178,0.138801 -7.284452,0.05923 z"
   id="path832"
   inkscape:connector-curvature="0" /></svg>