<?xml version="1.0" encoding="UTF-8" standalone="no"?>
<!-- Generator: Adobe Illustrator 21.1.0, SVG Export Plug-In . SVG Version: 6.00 Build 0)  -->

<svg
   xmlns:dc="http://purl.org/dc/elements/1.1/"
   xmlns:cc="http://creativecommons.org/ns#"
   xmlns:rdf="http://www.w3.org/1999/02/22-rdf-syntax-ns#"
   xmlns:svg="http://www.w3.org/2000/svg"
   xmlns="http://www.w3.org/2000/svg"
   xmlns:sodipodi="http://sodipodi.sourceforge.net/DTD/sodipodi-0.dtd"
   xmlns:inkscape="http://www.inkscape.org/namespaces/inkscape"
   version="1.1"
   id="Layer_1"
   x="0px"
   y="0px"
   viewBox="0 0 76 76.000002"
   xml:space="preserve"
   sodipodi:docname="x.svg"
   width="76"
   height="76"
   inkscape:version="0.92.3 (2405546, 2018-03-11)"><metadata
   id="metadata13"><rdf:RDF><cc:Work
       rdf:about=""><dc:format>image/svg+xml</dc:format><dc:type
         rdf:resource="http://purl.org/dc/dcmitype/StillImage" /><dc:title></dc:title></cc:Work></rdf:RDF></metadata><defs
   id="defs11" /><sodipodi:namedview
   pagecolor="#ffffff"
   bordercolor="#666666"
   borderopacity="1"
   objecttolerance="10"
   gridtolerance="10"
   guidetolerance="10"
   inkscape:pageopacity="0"
   inkscape:pageshadow="2"
   inkscape:window-width="1920"
   inkscape:window-height="1016"
   id="namedview9"
   showgrid="false"
   inkscape:zoom="8.484922"
   inkscape:cx="30.642795"
   inkscape:cy="38.854066"
   inkscape:window-x="0"
   inkscape:window-y="27"
   inkscape:window-maximized="1"
   inkscape:current-layer="Layer_1" />

<path
   style="opacity:1;fill:#d3e8e1;fill-opacity:1;stroke:none;stroke-width:12.0845623;stroke-miterlimit:4;stroke-dasharray:none;stroke-opacity:1"
   d="M 2.0238751,73.976125 C 0.5952829,72.547534 0,71.148539 0,69.219741 0,66.70068 1.107741,65.374943 14.180895,52.248087 L 28.361787,38.008949 14.180895,23.756493 C 0.8591439,10.367516 0,9.330299 0,6.6363178 0,2.7225657 2.7243587,0 6.6406846,0 9.3408096,0 10.365318,0.8490575 23.751912,14.180894 L 37.991053,28.361786 52.243509,14.180894 C 65.632483,0.8591433 66.6697,0 69.363681,0 73.274875,0 76,2.7246335 76,6.6351253 76,9.324709 75.147013,10.359179 62.181817,23.393339 c -7.599997,7.640424 -13.81818,14.213423 -13.81818,14.606663 0,0.393238 6.218183,6.966235 13.81818,14.606661 C 75.147013,65.640822 76,66.675291 76,69.364876 76,73.275367 73.274875,76 69.363681,76 66.6697,76 65.632483,75.14086 52.243509,61.819109 L 37.991053,47.638216 23.751912,61.819109 C 10.625062,74.892263 9.2993216,76 6.7802616,76 4.8514643,76 3.4524698,75.404721 2.0238751,73.976125 Z"
   id="path822"
   inkscape:connector-curvature="0" /></svg>